Coordinates
version=1
nRows=13
nColumns=38
inDegrees=no

Units are S.I. units (second, meters, Newtons, ...)
If the header above contains a line with 'inDegrees', this indicates whether rotational values are in degrees (yes) or radians (no).

endheader
time	pelvis_tilt	pelvis_list	pelvis_rotation	pelvis_tx	pelvis_ty	pelvis_tz	hip_flexion_r	hip_adduction_r	hip_rotation_r	knee_angle_r	ankle_angle_r	subtalar_angle_r	mtp_angle_r	hip_flexion_l	hip_adduction_l	hip_rotation_l	knee_angle_l	ankle_angle_l	subtalar_angle_l	mtp_angle_l	lumbar_extension	lumbar_bending	lumbar_rotation	arm_flex_r	arm_add_r	arm_rot_r	elbow_flex_r	pro_sup_r	wrist_flex_r	wrist_dev_r	arm_flex_l	arm_add_l	arm_rot_l	elbow_flex_l	pro_sup_l	wrist_flex_l	wrist_dev_l
4.88	-0.800074	1.46596	-1.25722	1.03505	-0.380729	0.972194	0.205472	-0.18632	-0.0837357	0.251989	-0.0693534	0	0	-0.25817	-0.00651311	-0.162537	0.016098	-0.00621613	0	0	-0.0830802	0.0236042	-0.20031	-0.191392	0.0187504	-1.44116	0.114418	0.65628	0	0	-0.178262	-0.133523	0.0211675	0.434797	1.41626	0	0
4.89	-0.787428	1.46515	-1.26769	1.0331	-0.382564	0.971925	0.204148	-0.194065	-0.0832515	0.253583	-0.0734612	0	0	-0.258129	-0.00789532	-0.160122	0.0244706	-0.00031869	0	0	-0.0722985	0.0226334	-0.225396	-0.200912	0.0261251	-1.23114	0.144059	0.576427	0	0	-0.195943	-0.127403	-0.000590055	0.433062	1.40611	0	0
4.9	-0.787615	1.46492	-1.26588	1.03123	-0.384521	0.971652	0.203324	-0.200529	-0.0823381	0.254183	-0.0783791	0	0	-0.257403	-0.0101088	-0.158032	0.0323606	0.00474384	0	0	-0.0716479	0.0223062	-0.225669	-0.202596	0.0269883	-1.22273	0.146958	0.581054	0	0	-0.198015	-0.125665	0.00144022	0.431261	1.39789	0	0
4.91	-0.785333	1.46453	-1.26637	1.02931	-0.386398	0.971359	0.202138	-0.207067	-0.081682	0.254923	-0.0829571	0	0	-0.256794	-0.0122748	-0.155799	0.0403116	0.00998732	0	0	-0.0717918	0.022058	-0.225306	-0.202973	0.0259939	-1.23247	0.144862	0.579204	0	0	-0.198941	-0.123294	-0.00297061	0.428447	1.40416	0	0
4.92	-0.795877	1.46456	-1.25447	1.02741	-0.388501	0.970973	0.201063	-0.212299	-0.0812711	0.25456	-0.0876401	0	0	-0.25578	-0.0153636	-0.155122	0.0479287	0.0160046	0	0	-0.0783287	0.0232826	-0.199191	-0.196315	0.0178768	-1.43762	0.1145	0.706298	0	0	-0.183726	-0.126153	0.0267883	0.422193	1.39674	0	0
4.93	-0.792082	1.46441	-1.25672	1.02531	-0.39035	0.970681	0.199241	-0.218459	-0.0803848	0.253795	-0.0915466	0	0	-0.255344	-0.0174246	-0.154003	0.0553019	0.0203998	0	0	-0.0784762	0.0227885	-0.198079	-0.197173	0.0163943	-1.43655	0.111827	0.692398	0	0	-0.1854	-0.124244	0.0223364	0.421845	1.39815	0	0
4.94	-0.774536	1.46434	-1.27129	1.02304	-0.391821	0.97043	0.19651	-0.225598	-0.0795076	0.252264	-0.0950592	0	0	-0.253785	-0.0190553	-0.15027	0.0650402	0.0258275	0	0	-0.0721928	0.0203353	-0.223817	-0.200424	0.0205292	-1.24489	0.132242	0.648271	0	0	-0.205163	-0.119051	-0.00953471	0.430335	1.38206	0	0
4.95	-0.768172	1.46384	-1.27529	1.02081	-0.39343	0.970134	0.193144	-0.231171	-0.0786839	0.249781	-0.0985191	0	0	-0.253748	-0.0214742	-0.147583	0.0719341	0.0299763	0	0	-0.0722087	0.0198279	-0.218843	-0.201328	0.0194279	-1.25413	0.128295	0.650818	0	0	-0.202689	-0.118046	-0.0137424	0.42587	1.39445	0	0
4.96	-0.762126	1.46496	-1.27845	1.01853	-0.394942	0.969729	0.191147	-0.236842	-0.0776933	0.246708	-0.102035	0	0	-0.250393	-0.0240939	-0.143642	0.0822255	0.0363012	0	0	-0.0705421	0.0185629	-0.214451	-0.20392	0.0213827	-1.24384	0.132028	0.672816	0	0	-0.202684	-0.119933	-0.000242518	0.427663	1.35877	0	0
4.97	-0.79246	1.50208	-1.24539	1.01343	-0.398844	0.96734	0.225148	-0.249447	-0.0751974	0.245176	-0.100359	0	0	-0.213133	-0.019793	-0.138333	0.089077	0.0380877	0	0	-0.0134353	0.00316313	-0.212397	-0.226217	0.0243211	-1.23561	0.135023	0.653452	0	0	-0.219478	-0.118342	-0.0148416	0.415576	1.37452	0	0
4.98	-0.750959	1.46551	-1.2856	1.01367	-0.397813	0.96917	0.183744	-0.245793	-0.0732189	0.23649	-0.108806	0	0	-0.248412	-0.0291454	-0.138437	0.096275	0.0444951	0	0	-0.0713413	0.0156837	-0.209141	-0.205354	0.0205842	-1.23367	0.130764	0.652451	0	0	-0.203867	-0.118225	-0.0159622	0.429464	1.36827	0	0
4.99	-0.739752	1.46481	-1.2949	1.01097	-0.399275	0.968747	0.17806	-0.250028	-0.0710693	0.230425	-0.109898	0	0	-0.249645	-0.0315406	-0.136809	0.10179	0.0487789	0	0	-0.0707427	0.0163547	-0.1995	-0.207954	0.0208748	-1.26174	0.131239	0.704336	0	0	-0.201898	-0.121379	0.00595336	0.431593	1.32945	0	0
5	-0.763624	1.50385	-1.26901	1.00539	-0.403246	0.96621	0.2127	-0.261558	-0.0672572	0.226687	-0.106127	0	0	-0.211947	-0.0269349	-0.132879	0.106098	0.0492581	0	0	-0.0108807	0.000487966	-0.196808	-0.231926	0.025033	-1.2448	0.137945	0.663618	0	0	-0.220562	-0.120034	-0.0108183	0.420767	1.34596	0	0
